G04 #@! TF.GenerationSoftware,KiCad,Pcbnew,5.1.2-f72e74a~84~ubuntu19.04.1*
G04 #@! TF.CreationDate,2019-06-29T01:26:47-05:00*
G04 #@! TF.ProjectId,pic18,70696331-382e-46b6-9963-61645f706362,rev?*
G04 #@! TF.SameCoordinates,Original*
G04 #@! TF.FileFunction,Legend,Bot*
G04 #@! TF.FilePolarity,Positive*
%FSLAX46Y46*%
G04 Gerber Fmt 4.6, Leading zero omitted, Abs format (unit mm)*
G04 Created by KiCad (PCBNEW 5.1.2-f72e74a~84~ubuntu19.04.1) date 2019-06-29 01:26:47*
%MOMM*%
%LPD*%
G04 APERTURE LIST*
%ADD10C,0.125000*%
%ADD11C,0.300000*%
%ADD12C,0.010000*%
%ADD13C,0.120000*%
%ADD14C,0.150000*%
G04 APERTURE END LIST*
D10*
X172117619Y-88929813D02*
X173217619Y-89158980D01*
X172117619Y-89663147D01*
X172641428Y-89964337D02*
X172641428Y-90331004D01*
X173217619Y-90416123D02*
X173217619Y-89892313D01*
X172117619Y-90029813D01*
X172117619Y-90553623D01*
X173217619Y-91516123D02*
X172693809Y-91214933D01*
X173217619Y-90887552D02*
X172117619Y-91025052D01*
X172117619Y-91444099D01*
X172170000Y-91542313D01*
X172222380Y-91588147D01*
X172327142Y-91627433D01*
X172484285Y-91607790D01*
X172589047Y-91542313D01*
X172641428Y-91483385D01*
X172693809Y-91372075D01*
X172693809Y-90953028D01*
X173165238Y-91941718D02*
X173217619Y-92092313D01*
X173217619Y-92354218D01*
X173165238Y-92465528D01*
X173112857Y-92524456D01*
X173008095Y-92589933D01*
X172903333Y-92603028D01*
X172798571Y-92563742D01*
X172746190Y-92517909D01*
X172693809Y-92419694D01*
X172641428Y-92216718D01*
X172589047Y-92118504D01*
X172536666Y-92072671D01*
X172431904Y-92033385D01*
X172327142Y-92046480D01*
X172222380Y-92111956D01*
X172170000Y-92170885D01*
X172117619Y-92282194D01*
X172117619Y-92544099D01*
X172170000Y-92694694D01*
X173217619Y-93035171D02*
X172117619Y-93172671D01*
X172117619Y-93906004D02*
X172117619Y-94115528D01*
X172170000Y-94213742D01*
X172274761Y-94305409D01*
X172484285Y-94331599D01*
X172850952Y-94285766D01*
X173060476Y-94207194D01*
X173165238Y-94089337D01*
X173217619Y-93978028D01*
X173217619Y-93768504D01*
X173165238Y-93670290D01*
X173060476Y-93578623D01*
X172850952Y-93552433D01*
X172484285Y-93598266D01*
X172274761Y-93676837D01*
X172170000Y-93794694D01*
X172117619Y-93906004D01*
X173217619Y-94711361D02*
X172117619Y-94848861D01*
X173217619Y-95339933D01*
X172117619Y-95477433D01*
X173217619Y-97278028D02*
X173217619Y-96649456D01*
X173217619Y-96963742D02*
X172117619Y-97101242D01*
X172274761Y-96976837D01*
X172379523Y-96858980D01*
X172431904Y-96747671D01*
X173112857Y-97762552D02*
X173165238Y-97808385D01*
X173217619Y-97749456D01*
X173165238Y-97703623D01*
X173112857Y-97762552D01*
X173217619Y-97749456D01*
X172117619Y-98620290D02*
X172117619Y-98725052D01*
X172170000Y-98823266D01*
X172222380Y-98869099D01*
X172327142Y-98908385D01*
X172536666Y-98934575D01*
X172798571Y-98901837D01*
X173008095Y-98823266D01*
X173112857Y-98757790D01*
X173165238Y-98698861D01*
X173217619Y-98587552D01*
X173217619Y-98482790D01*
X173165238Y-98384575D01*
X173112857Y-98338742D01*
X173008095Y-98299456D01*
X172798571Y-98273266D01*
X172536666Y-98306004D01*
X172327142Y-98384575D01*
X172222380Y-98450052D01*
X172170000Y-98508980D01*
X172117619Y-98620290D01*
D11*
X149242857Y-51748571D02*
X148671428Y-51748571D01*
X149028571Y-52748571D02*
X149028571Y-51462857D01*
X148957142Y-51320000D01*
X148814285Y-51248571D01*
X148671428Y-51248571D01*
X148171428Y-51748571D02*
X148171428Y-53034285D01*
X148242857Y-53177142D01*
X148385714Y-53248571D01*
X148457142Y-53248571D01*
X148171428Y-51248571D02*
X148242857Y-51320000D01*
X148171428Y-51391428D01*
X148100000Y-51320000D01*
X148171428Y-51248571D01*
X148171428Y-51391428D01*
X147457142Y-52605714D02*
X147385714Y-52677142D01*
X147457142Y-52748571D01*
X147528571Y-52677142D01*
X147457142Y-52605714D01*
X147457142Y-52748571D01*
X146742857Y-52748571D02*
X146742857Y-51748571D01*
X146742857Y-51891428D02*
X146671428Y-51820000D01*
X146528571Y-51748571D01*
X146314285Y-51748571D01*
X146171428Y-51820000D01*
X146100000Y-51962857D01*
X146100000Y-52748571D01*
X146100000Y-51962857D02*
X146028571Y-51820000D01*
X145885714Y-51748571D01*
X145671428Y-51748571D01*
X145528571Y-51820000D01*
X145457142Y-51962857D01*
X145457142Y-52748571D01*
X144171428Y-52677142D02*
X144314285Y-52748571D01*
X144600000Y-52748571D01*
X144742857Y-52677142D01*
X144814285Y-52534285D01*
X144814285Y-51962857D01*
X144742857Y-51820000D01*
X144600000Y-51748571D01*
X144314285Y-51748571D01*
X144171428Y-51820000D01*
X144100000Y-51962857D01*
X144100000Y-52105714D01*
X144814285Y-52248571D01*
X143457142Y-51748571D02*
X143457142Y-52748571D01*
X143457142Y-51891428D02*
X143385714Y-51820000D01*
X143242857Y-51748571D01*
X143028571Y-51748571D01*
X142885714Y-51820000D01*
X142814285Y-51962857D01*
X142814285Y-52748571D01*
X141457142Y-52748571D02*
X141457142Y-51248571D01*
X141457142Y-52677142D02*
X141600000Y-52748571D01*
X141885714Y-52748571D01*
X142028571Y-52677142D01*
X142100000Y-52605714D01*
X142171428Y-52462857D01*
X142171428Y-52034285D01*
X142100000Y-51891428D01*
X142028571Y-51820000D01*
X141885714Y-51748571D01*
X141600000Y-51748571D01*
X141457142Y-51820000D01*
X140528571Y-52748571D02*
X140671428Y-52677142D01*
X140742857Y-52605714D01*
X140814285Y-52462857D01*
X140814285Y-52034285D01*
X140742857Y-51891428D01*
X140671428Y-51820000D01*
X140528571Y-51748571D01*
X140314285Y-51748571D01*
X140171428Y-51820000D01*
X140100000Y-51891428D01*
X140028571Y-52034285D01*
X140028571Y-52462857D01*
X140100000Y-52605714D01*
X140171428Y-52677142D01*
X140314285Y-52748571D01*
X140528571Y-52748571D01*
X139528571Y-51748571D02*
X138742857Y-51748571D01*
X139528571Y-52748571D01*
X138742857Y-52748571D01*
X137528571Y-52748571D02*
X137528571Y-51962857D01*
X137600000Y-51820000D01*
X137742857Y-51748571D01*
X138028571Y-51748571D01*
X138171428Y-51820000D01*
X137528571Y-52677142D02*
X137671428Y-52748571D01*
X138028571Y-52748571D01*
X138171428Y-52677142D01*
X138242857Y-52534285D01*
X138242857Y-52391428D01*
X138171428Y-52248571D01*
X138028571Y-52177142D01*
X137671428Y-52177142D01*
X137528571Y-52105714D01*
X136814285Y-52748571D02*
X136814285Y-51248571D01*
X136814285Y-51820000D02*
X136671428Y-51748571D01*
X136385714Y-51748571D01*
X136242857Y-51820000D01*
X136171428Y-51891428D01*
X136100000Y-52034285D01*
X136100000Y-52462857D01*
X136171428Y-52605714D01*
X136242857Y-52677142D01*
X136385714Y-52748571D01*
X136671428Y-52748571D01*
X136814285Y-52677142D01*
X134814285Y-52748571D02*
X134814285Y-51962857D01*
X134885714Y-51820000D01*
X135028571Y-51748571D01*
X135314285Y-51748571D01*
X135457142Y-51820000D01*
X134814285Y-52677142D02*
X134957142Y-52748571D01*
X135314285Y-52748571D01*
X135457142Y-52677142D01*
X135528571Y-52534285D01*
X135528571Y-52391428D01*
X135457142Y-52248571D01*
X135314285Y-52177142D01*
X134957142Y-52177142D01*
X134814285Y-52105714D01*
X133457142Y-51748571D02*
X133457142Y-52748571D01*
X134100000Y-51748571D02*
X134100000Y-52534285D01*
X134028571Y-52677142D01*
X133885714Y-52748571D01*
X133671428Y-52748571D01*
X133528571Y-52677142D01*
X133457142Y-52605714D01*
X132957142Y-51748571D02*
X132385714Y-51748571D01*
X132742857Y-51248571D02*
X132742857Y-52534285D01*
X132671428Y-52677142D01*
X132528571Y-52748571D01*
X132385714Y-52748571D01*
X131885714Y-52748571D02*
X131885714Y-51748571D01*
X131885714Y-51248571D02*
X131957142Y-51320000D01*
X131885714Y-51391428D01*
X131814285Y-51320000D01*
X131885714Y-51248571D01*
X131885714Y-51391428D01*
X131242857Y-52677142D02*
X131100000Y-52748571D01*
X130814285Y-52748571D01*
X130671428Y-52677142D01*
X130600000Y-52534285D01*
X130600000Y-52462857D01*
X130671428Y-52320000D01*
X130814285Y-52248571D01*
X131028571Y-52248571D01*
X131171428Y-52177142D01*
X131242857Y-52034285D01*
X131242857Y-51962857D01*
X131171428Y-51820000D01*
X131028571Y-51748571D01*
X130814285Y-51748571D01*
X130671428Y-51820000D01*
X130171428Y-51748571D02*
X129600000Y-51748571D01*
X129957142Y-51248571D02*
X129957142Y-52534285D01*
X129885714Y-52677142D01*
X129742857Y-52748571D01*
X129600000Y-52748571D01*
X128457142Y-52748571D02*
X128457142Y-51962857D01*
X128528571Y-51820000D01*
X128671428Y-51748571D01*
X128957142Y-51748571D01*
X129100000Y-51820000D01*
X128457142Y-52677142D02*
X128600000Y-52748571D01*
X128957142Y-52748571D01*
X129100000Y-52677142D01*
X129171428Y-52534285D01*
X129171428Y-52391428D01*
X129100000Y-52248571D01*
X128957142Y-52177142D01*
X128600000Y-52177142D01*
X128457142Y-52105714D01*
X126814285Y-52034285D02*
X126885714Y-51962857D01*
X127028571Y-51891428D01*
X127171428Y-51891428D01*
X127314285Y-51962857D01*
X127385714Y-52034285D01*
X127457142Y-52177142D01*
X127457142Y-52320000D01*
X127385714Y-52462857D01*
X127314285Y-52534285D01*
X127171428Y-52605714D01*
X127028571Y-52605714D01*
X126885714Y-52534285D01*
X126814285Y-52462857D01*
X126814285Y-51891428D02*
X126814285Y-52462857D01*
X126742857Y-52534285D01*
X126671428Y-52534285D01*
X126528571Y-52462857D01*
X126457142Y-52320000D01*
X126457142Y-51962857D01*
X126600000Y-51748571D01*
X126814285Y-51605714D01*
X127100000Y-51534285D01*
X127385714Y-51605714D01*
X127600000Y-51748571D01*
X127742857Y-51962857D01*
X127814285Y-52248571D01*
X127742857Y-52534285D01*
X127600000Y-52748571D01*
X127385714Y-52891428D01*
X127100000Y-52962857D01*
X126814285Y-52891428D01*
X126600000Y-52748571D01*
X125171428Y-51748571D02*
X125171428Y-52748571D01*
X125814285Y-51748571D02*
X125814285Y-52534285D01*
X125742857Y-52677142D01*
X125600000Y-52748571D01*
X125385714Y-52748571D01*
X125242857Y-52677142D01*
X125171428Y-52605714D01*
X123814285Y-51748571D02*
X123814285Y-52962857D01*
X123885714Y-53105714D01*
X123957142Y-53177142D01*
X124100000Y-53248571D01*
X124314285Y-53248571D01*
X124457142Y-53177142D01*
X123814285Y-52677142D02*
X123957142Y-52748571D01*
X124242857Y-52748571D01*
X124385714Y-52677142D01*
X124457142Y-52605714D01*
X124528571Y-52462857D01*
X124528571Y-52034285D01*
X124457142Y-51891428D01*
X124385714Y-51820000D01*
X124242857Y-51748571D01*
X123957142Y-51748571D01*
X123814285Y-51820000D01*
X123314285Y-51748571D02*
X122742857Y-51748571D01*
X123100000Y-51248571D02*
X123100000Y-52534285D01*
X123028571Y-52677142D01*
X122885714Y-52748571D01*
X122742857Y-52748571D01*
X122028571Y-52748571D02*
X122171428Y-52677142D01*
X122242857Y-52605714D01*
X122314285Y-52462857D01*
X122314285Y-52034285D01*
X122242857Y-51891428D01*
X122171428Y-51820000D01*
X122028571Y-51748571D01*
X121814285Y-51748571D01*
X121671428Y-51820000D01*
X121600000Y-51891428D01*
X121528571Y-52034285D01*
X121528571Y-52462857D01*
X121600000Y-52605714D01*
X121671428Y-52677142D01*
X121814285Y-52748571D01*
X122028571Y-52748571D01*
X120885714Y-52605714D02*
X120814285Y-52677142D01*
X120885714Y-52748571D01*
X120957142Y-52677142D01*
X120885714Y-52605714D01*
X120885714Y-52748571D01*
X120171428Y-52748571D02*
X120171428Y-51748571D01*
X120171428Y-51891428D02*
X120100000Y-51820000D01*
X119957142Y-51748571D01*
X119742857Y-51748571D01*
X119600000Y-51820000D01*
X119528571Y-51962857D01*
X119528571Y-52748571D01*
X119528571Y-51962857D02*
X119457142Y-51820000D01*
X119314285Y-51748571D01*
X119100000Y-51748571D01*
X118957142Y-51820000D01*
X118885714Y-51962857D01*
X118885714Y-52748571D01*
X118314285Y-52748571D02*
X117528571Y-51748571D01*
X118314285Y-51748571D02*
X117528571Y-52748571D01*
D12*
G36*
X168834799Y-93440372D02*
G01*
X168906704Y-93627808D01*
X169013178Y-93596603D01*
X169019382Y-93588587D01*
X169094441Y-93364149D01*
X169108020Y-93049288D01*
X169057699Y-92760260D01*
X169037646Y-92711342D01*
X168931734Y-92606021D01*
X168847731Y-92719114D01*
X168808916Y-93015056D01*
X168808400Y-93061614D01*
X168834799Y-93440372D01*
X168834799Y-93440372D01*
G37*
X168834799Y-93440372D02*
X168906704Y-93627808D01*
X169013178Y-93596603D01*
X169019382Y-93588587D01*
X169094441Y-93364149D01*
X169108020Y-93049288D01*
X169057699Y-92760260D01*
X169037646Y-92711342D01*
X168931734Y-92606021D01*
X168847731Y-92719114D01*
X168808916Y-93015056D01*
X168808400Y-93061614D01*
X168834799Y-93440372D01*
G36*
X168939102Y-99654599D02*
G01*
X169090038Y-99640161D01*
X169219419Y-99768921D01*
X169292389Y-99896760D01*
X169459084Y-100214620D01*
X169493023Y-99712405D01*
X169535390Y-99343251D01*
X169615413Y-99131048D01*
X169675681Y-99056187D01*
X169791184Y-98907558D01*
X169811062Y-98777108D01*
X169734260Y-98631730D01*
X169659339Y-98543169D01*
X169540604Y-98348330D01*
X169479665Y-98121780D01*
X169478565Y-98107500D01*
X169449162Y-97742624D01*
X169410609Y-97605000D01*
X169346959Y-97668450D01*
X169288595Y-97795646D01*
X169158207Y-98011342D01*
X168996570Y-98067294D01*
X168959721Y-98063525D01*
X168819394Y-98056597D01*
X168767793Y-98121931D01*
X168792603Y-98305161D01*
X168841706Y-98500843D01*
X168892492Y-98730428D01*
X168895625Y-98929247D01*
X168850720Y-99214959D01*
X168839161Y-99276024D01*
X168752510Y-99730298D01*
X168939102Y-99654599D01*
X168939102Y-99654599D01*
G37*
X168939102Y-99654599D02*
X169090038Y-99640161D01*
X169219419Y-99768921D01*
X169292389Y-99896760D01*
X169459084Y-100214620D01*
X169493023Y-99712405D01*
X169535390Y-99343251D01*
X169615413Y-99131048D01*
X169675681Y-99056187D01*
X169791184Y-98907558D01*
X169811062Y-98777108D01*
X169734260Y-98631730D01*
X169659339Y-98543169D01*
X169540604Y-98348330D01*
X169479665Y-98121780D01*
X169478565Y-98107500D01*
X169449162Y-97742624D01*
X169410609Y-97605000D01*
X169346959Y-97668450D01*
X169288595Y-97795646D01*
X169158207Y-98011342D01*
X168996570Y-98067294D01*
X168959721Y-98063525D01*
X168819394Y-98056597D01*
X168767793Y-98121931D01*
X168792603Y-98305161D01*
X168841706Y-98500843D01*
X168892492Y-98730428D01*
X168895625Y-98929247D01*
X168850720Y-99214959D01*
X168839161Y-99276024D01*
X168752510Y-99730298D01*
X168939102Y-99654599D01*
G36*
X168732435Y-90846614D02*
G01*
X168776844Y-91232255D01*
X168888529Y-91677857D01*
X169043552Y-92017720D01*
X169211636Y-92191072D01*
X169259750Y-92201525D01*
X169454112Y-92084015D01*
X169638043Y-91771237D01*
X169791354Y-91320745D01*
X169893857Y-90790098D01*
X169926000Y-90302059D01*
X169926000Y-89916000D01*
X170688000Y-89916000D01*
X170688000Y-89027000D01*
X168960800Y-89027000D01*
X168960800Y-89916000D01*
X169418000Y-89916000D01*
X169653287Y-89925278D01*
X169799262Y-89969509D01*
X169868130Y-90073291D01*
X169872094Y-90261220D01*
X169823358Y-90557891D01*
X169798140Y-90682157D01*
X169664806Y-91087959D01*
X169480718Y-91344183D01*
X169275898Y-91429648D01*
X169080369Y-91323170D01*
X169017537Y-91232902D01*
X168877414Y-90842932D01*
X168791100Y-90296802D01*
X168762534Y-89659649D01*
X168795653Y-88996607D01*
X168855996Y-88560996D01*
X168972900Y-88087324D01*
X169121861Y-87835537D01*
X169324281Y-87775323D01*
X169400038Y-87790479D01*
X169556562Y-87795083D01*
X169621188Y-87697465D01*
X169592873Y-87501349D01*
X169528299Y-87332183D01*
X169374513Y-87125981D01*
X169210841Y-87153631D01*
X169049016Y-87400800D01*
X168900772Y-87853159D01*
X168828860Y-88186469D01*
X168754485Y-88763152D01*
X168712534Y-89462523D01*
X168704639Y-90188904D01*
X168732435Y-90846614D01*
X168732435Y-90846614D01*
G37*
X168732435Y-90846614D02*
X168776844Y-91232255D01*
X168888529Y-91677857D01*
X169043552Y-92017720D01*
X169211636Y-92191072D01*
X169259750Y-92201525D01*
X169454112Y-92084015D01*
X169638043Y-91771237D01*
X169791354Y-91320745D01*
X169893857Y-90790098D01*
X169926000Y-90302059D01*
X169926000Y-89916000D01*
X170688000Y-89916000D01*
X170688000Y-89027000D01*
X168960800Y-89027000D01*
X168960800Y-89916000D01*
X169418000Y-89916000D01*
X169653287Y-89925278D01*
X169799262Y-89969509D01*
X169868130Y-90073291D01*
X169872094Y-90261220D01*
X169823358Y-90557891D01*
X169798140Y-90682157D01*
X169664806Y-91087959D01*
X169480718Y-91344183D01*
X169275898Y-91429648D01*
X169080369Y-91323170D01*
X169017537Y-91232902D01*
X168877414Y-90842932D01*
X168791100Y-90296802D01*
X168762534Y-89659649D01*
X168795653Y-88996607D01*
X168855996Y-88560996D01*
X168972900Y-88087324D01*
X169121861Y-87835537D01*
X169324281Y-87775323D01*
X169400038Y-87790479D01*
X169556562Y-87795083D01*
X169621188Y-87697465D01*
X169592873Y-87501349D01*
X169528299Y-87332183D01*
X169374513Y-87125981D01*
X169210841Y-87153631D01*
X169049016Y-87400800D01*
X168900772Y-87853159D01*
X168828860Y-88186469D01*
X168754485Y-88763152D01*
X168712534Y-89462523D01*
X168704639Y-90188904D01*
X168732435Y-90846614D01*
G36*
X169375208Y-96663818D02*
G01*
X169437974Y-97012356D01*
X169443230Y-97027531D01*
X169554259Y-97220238D01*
X169674923Y-97274585D01*
X169768381Y-97183370D01*
X169791346Y-97095567D01*
X169786593Y-96883123D01*
X169720704Y-96799609D01*
X169669774Y-96840938D01*
X169588994Y-96843362D01*
X169512896Y-96672926D01*
X169470658Y-96403279D01*
X169468800Y-96333632D01*
X169514964Y-95967414D01*
X169651454Y-95706346D01*
X169875266Y-95555203D01*
X169975163Y-95528885D01*
X170151159Y-95510004D01*
X170262944Y-95548412D01*
X170346981Y-95667200D01*
X170405059Y-95801103D01*
X170512707Y-96215197D01*
X170527455Y-96702034D01*
X170486057Y-97083232D01*
X170465310Y-97339430D01*
X170503591Y-97398399D01*
X170591305Y-97250226D01*
X170608171Y-97209428D01*
X170666130Y-96918125D01*
X170691187Y-96479166D01*
X170684384Y-95984301D01*
X170646761Y-95525282D01*
X170585514Y-95212530D01*
X170483028Y-94886806D01*
X170610914Y-94415680D01*
X170704091Y-94012113D01*
X170730604Y-93680931D01*
X170697115Y-93318708D01*
X170686143Y-93247902D01*
X170626838Y-93023359D01*
X170523208Y-92867195D01*
X170360367Y-92769575D01*
X170123426Y-92720665D01*
X169871892Y-92710000D01*
X169367200Y-92710000D01*
X169367200Y-93590406D01*
X169907890Y-93626453D01*
X170155554Y-93648983D01*
X170320853Y-93682922D01*
X170423016Y-93736847D01*
X170481271Y-93819337D01*
X170504790Y-93892706D01*
X170518797Y-94143480D01*
X170449306Y-94368446D01*
X170314390Y-94535631D01*
X170132121Y-94613061D01*
X170096540Y-94615000D01*
X169830845Y-94695854D01*
X169607671Y-94920857D01*
X169452231Y-95263665D01*
X169442790Y-95298000D01*
X169377590Y-95704092D01*
X169355072Y-96193547D01*
X169375208Y-96663818D01*
X169375208Y-96663818D01*
G37*
X169375208Y-96663818D02*
X169437974Y-97012356D01*
X169443230Y-97027531D01*
X169554259Y-97220238D01*
X169674923Y-97274585D01*
X169768381Y-97183370D01*
X169791346Y-97095567D01*
X169786593Y-96883123D01*
X169720704Y-96799609D01*
X169669774Y-96840938D01*
X169588994Y-96843362D01*
X169512896Y-96672926D01*
X169470658Y-96403279D01*
X169468800Y-96333632D01*
X169514964Y-95967414D01*
X169651454Y-95706346D01*
X169875266Y-95555203D01*
X169975163Y-95528885D01*
X170151159Y-95510004D01*
X170262944Y-95548412D01*
X170346981Y-95667200D01*
X170405059Y-95801103D01*
X170512707Y-96215197D01*
X170527455Y-96702034D01*
X170486057Y-97083232D01*
X170465310Y-97339430D01*
X170503591Y-97398399D01*
X170591305Y-97250226D01*
X170608171Y-97209428D01*
X170666130Y-96918125D01*
X170691187Y-96479166D01*
X170684384Y-95984301D01*
X170646761Y-95525282D01*
X170585514Y-95212530D01*
X170483028Y-94886806D01*
X170610914Y-94415680D01*
X170704091Y-94012113D01*
X170730604Y-93680931D01*
X170697115Y-93318708D01*
X170686143Y-93247902D01*
X170626838Y-93023359D01*
X170523208Y-92867195D01*
X170360367Y-92769575D01*
X170123426Y-92720665D01*
X169871892Y-92710000D01*
X169367200Y-92710000D01*
X169367200Y-93590406D01*
X169907890Y-93626453D01*
X170155554Y-93648983D01*
X170320853Y-93682922D01*
X170423016Y-93736847D01*
X170481271Y-93819337D01*
X170504790Y-93892706D01*
X170518797Y-94143480D01*
X170449306Y-94368446D01*
X170314390Y-94535631D01*
X170132121Y-94613061D01*
X170096540Y-94615000D01*
X169830845Y-94695854D01*
X169607671Y-94920857D01*
X169452231Y-95263665D01*
X169442790Y-95298000D01*
X169377590Y-95704092D01*
X169355072Y-96193547D01*
X169375208Y-96663818D01*
G36*
X169372505Y-84754237D02*
G01*
X169418227Y-85027186D01*
X169452119Y-85184430D01*
X169424220Y-85217000D01*
X169386539Y-85328588D01*
X169367695Y-85602995D01*
X169367200Y-85661500D01*
X169367200Y-86106000D01*
X169890440Y-86106000D01*
X170160053Y-86117645D01*
X170343913Y-86161650D01*
X170457586Y-86251617D01*
X170516640Y-86401146D01*
X170536645Y-86623839D01*
X170537290Y-86671149D01*
X170543339Y-86837234D01*
X170572174Y-86820898D01*
X170638890Y-86631680D01*
X170721278Y-86318087D01*
X170724177Y-86046643D01*
X170647264Y-85722803D01*
X170635647Y-85685410D01*
X170532494Y-85357565D01*
X170635647Y-84876413D01*
X170712754Y-84463379D01*
X170731730Y-84142773D01*
X170693805Y-83800888D01*
X170649821Y-83566000D01*
X170503467Y-83099031D01*
X170299288Y-82806807D01*
X170174292Y-82762883D01*
X170174292Y-83624444D01*
X170343187Y-83738579D01*
X170466654Y-83953974D01*
X170530463Y-84246365D01*
X170520379Y-84591488D01*
X170430095Y-84944219D01*
X170364469Y-85089892D01*
X170285233Y-85170666D01*
X170164491Y-85200556D01*
X169974346Y-85193581D01*
X169940134Y-85190416D01*
X169704581Y-85143688D01*
X169556959Y-85043006D01*
X169484385Y-84865870D01*
X169473971Y-84589775D01*
X169488614Y-84401919D01*
X169547189Y-84127295D01*
X169674877Y-83896154D01*
X169757156Y-83797010D01*
X169974205Y-83635833D01*
X170174292Y-83624444D01*
X170174292Y-82762883D01*
X170064274Y-82724222D01*
X170009567Y-82738223D01*
X169727711Y-82935431D01*
X169519622Y-83283714D01*
X169447716Y-83503854D01*
X169386321Y-83877957D01*
X169360565Y-84330174D01*
X169372505Y-84754237D01*
X169372505Y-84754237D01*
G37*
X169372505Y-84754237D02*
X169418227Y-85027186D01*
X169452119Y-85184430D01*
X169424220Y-85217000D01*
X169386539Y-85328588D01*
X169367695Y-85602995D01*
X169367200Y-85661500D01*
X169367200Y-86106000D01*
X169890440Y-86106000D01*
X170160053Y-86117645D01*
X170343913Y-86161650D01*
X170457586Y-86251617D01*
X170516640Y-86401146D01*
X170536645Y-86623839D01*
X170537290Y-86671149D01*
X170543339Y-86837234D01*
X170572174Y-86820898D01*
X170638890Y-86631680D01*
X170721278Y-86318087D01*
X170724177Y-86046643D01*
X170647264Y-85722803D01*
X170635647Y-85685410D01*
X170532494Y-85357565D01*
X170635647Y-84876413D01*
X170712754Y-84463379D01*
X170731730Y-84142773D01*
X170693805Y-83800888D01*
X170649821Y-83566000D01*
X170503467Y-83099031D01*
X170299288Y-82806807D01*
X170174292Y-82762883D01*
X170174292Y-83624444D01*
X170343187Y-83738579D01*
X170466654Y-83953974D01*
X170530463Y-84246365D01*
X170520379Y-84591488D01*
X170430095Y-84944219D01*
X170364469Y-85089892D01*
X170285233Y-85170666D01*
X170164491Y-85200556D01*
X169974346Y-85193581D01*
X169940134Y-85190416D01*
X169704581Y-85143688D01*
X169556959Y-85043006D01*
X169484385Y-84865870D01*
X169473971Y-84589775D01*
X169488614Y-84401919D01*
X169547189Y-84127295D01*
X169674877Y-83896154D01*
X169757156Y-83797010D01*
X169974205Y-83635833D01*
X170174292Y-83624444D01*
X170174292Y-82762883D01*
X170064274Y-82724222D01*
X170009567Y-82738223D01*
X169727711Y-82935431D01*
X169519622Y-83283714D01*
X169447716Y-83503854D01*
X169386321Y-83877957D01*
X169360565Y-84330174D01*
X169372505Y-84754237D01*
G36*
X169786300Y-81988129D02*
G01*
X170176953Y-81952294D01*
X170479138Y-81912787D01*
X170705965Y-81861068D01*
X170870547Y-81788596D01*
X170985995Y-81686830D01*
X171065422Y-81547231D01*
X171121939Y-81361258D01*
X171168659Y-81120370D01*
X171174843Y-81083700D01*
X171233591Y-80486643D01*
X171236267Y-79822597D01*
X171182910Y-79224223D01*
X171174260Y-79171756D01*
X171070345Y-78815853D01*
X170928754Y-78626134D01*
X170777832Y-78616605D01*
X170645923Y-78801273D01*
X170614680Y-78895258D01*
X170554753Y-79248167D01*
X170538189Y-79653695D01*
X170566656Y-79999934D01*
X170596559Y-80111600D01*
X170678134Y-80250332D01*
X170725482Y-80220855D01*
X170720260Y-80072397D01*
X170712082Y-79740760D01*
X170769763Y-79439676D01*
X170871285Y-79263044D01*
X170913555Y-79248000D01*
X171034539Y-79355045D01*
X171114372Y-79628298D01*
X171147357Y-79995935D01*
X171127800Y-80386132D01*
X171050003Y-80727064D01*
X171034021Y-80767052D01*
X170990472Y-80854980D01*
X170936252Y-80920434D01*
X170856855Y-80966710D01*
X170737776Y-80997102D01*
X170564511Y-81014905D01*
X170322555Y-81023414D01*
X169997402Y-81025923D01*
X169894019Y-81026000D01*
X169581138Y-81021076D01*
X169304021Y-81007335D01*
X169078287Y-80986322D01*
X168919558Y-80959585D01*
X168843456Y-80928667D01*
X168839397Y-80921644D01*
X168842690Y-80734755D01*
X168891228Y-80443683D01*
X168965824Y-80140639D01*
X169047294Y-79917832D01*
X169048903Y-79914750D01*
X169165949Y-79798559D01*
X169322215Y-79760883D01*
X169471011Y-79802300D01*
X169560239Y-79908399D01*
X169611194Y-79978223D01*
X169618708Y-79840437D01*
X169582188Y-79517741D01*
X169572196Y-79450314D01*
X169479822Y-79149261D01*
X169335081Y-79039600D01*
X169157246Y-79132619D01*
X169114803Y-79182427D01*
X168963668Y-79502888D01*
X168837067Y-80006868D01*
X168747669Y-80625626D01*
X168708144Y-81290418D01*
X168707296Y-81393590D01*
X168706800Y-82078680D01*
X169786300Y-81988129D01*
X169786300Y-81988129D01*
G37*
X169786300Y-81988129D02*
X170176953Y-81952294D01*
X170479138Y-81912787D01*
X170705965Y-81861068D01*
X170870547Y-81788596D01*
X170985995Y-81686830D01*
X171065422Y-81547231D01*
X171121939Y-81361258D01*
X171168659Y-81120370D01*
X171174843Y-81083700D01*
X171233591Y-80486643D01*
X171236267Y-79822597D01*
X171182910Y-79224223D01*
X171174260Y-79171756D01*
X171070345Y-78815853D01*
X170928754Y-78626134D01*
X170777832Y-78616605D01*
X170645923Y-78801273D01*
X170614680Y-78895258D01*
X170554753Y-79248167D01*
X170538189Y-79653695D01*
X170566656Y-79999934D01*
X170596559Y-80111600D01*
X170678134Y-80250332D01*
X170725482Y-80220855D01*
X170720260Y-80072397D01*
X170712082Y-79740760D01*
X170769763Y-79439676D01*
X170871285Y-79263044D01*
X170913555Y-79248000D01*
X171034539Y-79355045D01*
X171114372Y-79628298D01*
X171147357Y-79995935D01*
X171127800Y-80386132D01*
X171050003Y-80727064D01*
X171034021Y-80767052D01*
X170990472Y-80854980D01*
X170936252Y-80920434D01*
X170856855Y-80966710D01*
X170737776Y-80997102D01*
X170564511Y-81014905D01*
X170322555Y-81023414D01*
X169997402Y-81025923D01*
X169894019Y-81026000D01*
X169581138Y-81021076D01*
X169304021Y-81007335D01*
X169078287Y-80986322D01*
X168919558Y-80959585D01*
X168843456Y-80928667D01*
X168839397Y-80921644D01*
X168842690Y-80734755D01*
X168891228Y-80443683D01*
X168965824Y-80140639D01*
X169047294Y-79917832D01*
X169048903Y-79914750D01*
X169165949Y-79798559D01*
X169322215Y-79760883D01*
X169471011Y-79802300D01*
X169560239Y-79908399D01*
X169611194Y-79978223D01*
X169618708Y-79840437D01*
X169582188Y-79517741D01*
X169572196Y-79450314D01*
X169479822Y-79149261D01*
X169335081Y-79039600D01*
X169157246Y-79132619D01*
X169114803Y-79182427D01*
X168963668Y-79502888D01*
X168837067Y-80006868D01*
X168747669Y-80625626D01*
X168708144Y-81290418D01*
X168707296Y-81393590D01*
X168706800Y-82078680D01*
X169786300Y-81988129D01*
G36*
X171498319Y-99088879D02*
G01*
X171499218Y-100217650D01*
X171500659Y-101171563D01*
X171502681Y-101963808D01*
X171505319Y-102607575D01*
X171508610Y-103116055D01*
X171512591Y-103502437D01*
X171517298Y-103779912D01*
X171522769Y-103961670D01*
X171529040Y-104060900D01*
X171536147Y-104090794D01*
X171538900Y-104087169D01*
X171544975Y-103948652D01*
X171551424Y-103574724D01*
X171558132Y-102983968D01*
X171564984Y-102194969D01*
X171571867Y-101226312D01*
X171578666Y-100096582D01*
X171585268Y-98824363D01*
X171591558Y-97428240D01*
X171597422Y-95926799D01*
X171602746Y-94338623D01*
X171606288Y-93112252D01*
X171611620Y-91182124D01*
X171616670Y-89489146D01*
X171621610Y-88016467D01*
X171626613Y-86747239D01*
X171631849Y-85664614D01*
X171637492Y-84751742D01*
X171643713Y-83991775D01*
X171650685Y-83367865D01*
X171658579Y-82863161D01*
X171667567Y-82460817D01*
X171677821Y-82143982D01*
X171689514Y-81895808D01*
X171702818Y-81699447D01*
X171717904Y-81538049D01*
X171725119Y-81474039D01*
X171785908Y-81002439D01*
X171849178Y-80578308D01*
X171887635Y-80362789D01*
X171930712Y-80120394D01*
X171936283Y-80010571D01*
X171934937Y-80010000D01*
X171888023Y-80123637D01*
X171823323Y-80428863D01*
X171749685Y-80872147D01*
X171675953Y-81399959D01*
X171610974Y-81958769D01*
X171607812Y-81989511D01*
X171586070Y-82213781D01*
X171567604Y-82441355D01*
X171552132Y-82694275D01*
X171539373Y-82994582D01*
X171529043Y-83364317D01*
X171520861Y-83825521D01*
X171514545Y-84400238D01*
X171509813Y-85110506D01*
X171506383Y-85978369D01*
X171503972Y-87025867D01*
X171502299Y-88275043D01*
X171501082Y-89747937D01*
X171500686Y-90360500D01*
X171499421Y-92561412D01*
X171498514Y-94521516D01*
X171498004Y-96254002D01*
X171497927Y-97772060D01*
X171498319Y-99088879D01*
X171498319Y-99088879D01*
G37*
X171498319Y-99088879D02*
X171499218Y-100217650D01*
X171500659Y-101171563D01*
X171502681Y-101963808D01*
X171505319Y-102607575D01*
X171508610Y-103116055D01*
X171512591Y-103502437D01*
X171517298Y-103779912D01*
X171522769Y-103961670D01*
X171529040Y-104060900D01*
X171536147Y-104090794D01*
X171538900Y-104087169D01*
X171544975Y-103948652D01*
X171551424Y-103574724D01*
X171558132Y-102983968D01*
X171564984Y-102194969D01*
X171571867Y-101226312D01*
X171578666Y-100096582D01*
X171585268Y-98824363D01*
X171591558Y-97428240D01*
X171597422Y-95926799D01*
X171602746Y-94338623D01*
X171606288Y-93112252D01*
X171611620Y-91182124D01*
X171616670Y-89489146D01*
X171621610Y-88016467D01*
X171626613Y-86747239D01*
X171631849Y-85664614D01*
X171637492Y-84751742D01*
X171643713Y-83991775D01*
X171650685Y-83367865D01*
X171658579Y-82863161D01*
X171667567Y-82460817D01*
X171677821Y-82143982D01*
X171689514Y-81895808D01*
X171702818Y-81699447D01*
X171717904Y-81538049D01*
X171725119Y-81474039D01*
X171785908Y-81002439D01*
X171849178Y-80578308D01*
X171887635Y-80362789D01*
X171930712Y-80120394D01*
X171936283Y-80010571D01*
X171934937Y-80010000D01*
X171888023Y-80123637D01*
X171823323Y-80428863D01*
X171749685Y-80872147D01*
X171675953Y-81399959D01*
X171610974Y-81958769D01*
X171607812Y-81989511D01*
X171586070Y-82213781D01*
X171567604Y-82441355D01*
X171552132Y-82694275D01*
X171539373Y-82994582D01*
X171529043Y-83364317D01*
X171520861Y-83825521D01*
X171514545Y-84400238D01*
X171509813Y-85110506D01*
X171506383Y-85978369D01*
X171503972Y-87025867D01*
X171502299Y-88275043D01*
X171501082Y-89747937D01*
X171500686Y-90360500D01*
X171499421Y-92561412D01*
X171498514Y-94521516D01*
X171498004Y-96254002D01*
X171497927Y-97772060D01*
X171498319Y-99088879D01*
G36*
X171975770Y-79883000D02*
G01*
X172015309Y-79788757D01*
X172081527Y-79560879D01*
X172084426Y-79549863D01*
X172128436Y-79349178D01*
X172121452Y-79295576D01*
X172115942Y-79302936D01*
X172061789Y-79439169D01*
X172006117Y-79643562D01*
X171971665Y-79822007D01*
X171975770Y-79883000D01*
X171975770Y-79883000D01*
G37*
X171975770Y-79883000D02*
X172015309Y-79788757D01*
X172081527Y-79560879D01*
X172084426Y-79549863D01*
X172128436Y-79349178D01*
X172121452Y-79295576D01*
X172115942Y-79302936D01*
X172061789Y-79439169D01*
X172006117Y-79643562D01*
X171971665Y-79822007D01*
X171975770Y-79883000D01*
G36*
X172194014Y-79081155D02*
G01*
X172212000Y-79057500D01*
X172260514Y-78937838D01*
X172262800Y-78915509D01*
X172229985Y-78906844D01*
X172212000Y-78930500D01*
X172163485Y-79050161D01*
X172161200Y-79072490D01*
X172194014Y-79081155D01*
X172194014Y-79081155D01*
G37*
X172194014Y-79081155D02*
X172212000Y-79057500D01*
X172260514Y-78937838D01*
X172262800Y-78915509D01*
X172229985Y-78906844D01*
X172212000Y-78930500D01*
X172163485Y-79050161D01*
X172161200Y-79072490D01*
X172194014Y-79081155D01*
D13*
X143277000Y-90202936D02*
X143277000Y-91407064D01*
X141457000Y-90202936D02*
X141457000Y-91407064D01*
X144712000Y-110606252D02*
X144712000Y-107833748D01*
X141292000Y-110606252D02*
X141292000Y-107833748D01*
X181250000Y-113697936D02*
X181250000Y-114902064D01*
X179430000Y-113697936D02*
X179430000Y-114902064D01*
X150262000Y-85057064D02*
X150262000Y-83852936D01*
X148442000Y-85057064D02*
X148442000Y-83852936D01*
X159660000Y-75532064D02*
X159660000Y-74327936D01*
X157840000Y-75532064D02*
X157840000Y-74327936D01*
X157120000Y-59152064D02*
X157120000Y-57947936D01*
X155300000Y-59152064D02*
X155300000Y-57947936D01*
X121317936Y-135488000D02*
X122522064Y-135488000D01*
X121317936Y-137308000D02*
X122522064Y-137308000D01*
X177440000Y-113697936D02*
X177440000Y-114902064D01*
X175620000Y-113697936D02*
X175620000Y-114902064D01*
X173630000Y-113697936D02*
X173630000Y-114902064D01*
X171810000Y-113697936D02*
X171810000Y-114902064D01*
X150527936Y-136250000D02*
X151732064Y-136250000D01*
X150527936Y-138070000D02*
X151732064Y-138070000D01*
X132936064Y-135488000D02*
X131731936Y-135488000D01*
X132936064Y-137308000D02*
X131731936Y-137308000D01*
X112362064Y-60600000D02*
X111157936Y-60600000D01*
X112362064Y-58780000D02*
X111157936Y-58780000D01*
X112362064Y-54970000D02*
X111157936Y-54970000D01*
X112362064Y-56790000D02*
X111157936Y-56790000D01*
X164740000Y-59152064D02*
X164740000Y-57947936D01*
X162920000Y-59152064D02*
X162920000Y-57947936D01*
X127602064Y-103018000D02*
X126397936Y-103018000D01*
X127602064Y-101198000D02*
X126397936Y-101198000D01*
X161650000Y-75532064D02*
X161650000Y-74327936D01*
X163470000Y-75532064D02*
X163470000Y-74327936D01*
X127602064Y-97388000D02*
X126397936Y-97388000D01*
X127602064Y-99208000D02*
X126397936Y-99208000D01*
X127602064Y-95398000D02*
X126397936Y-95398000D01*
X127602064Y-93578000D02*
X126397936Y-93578000D01*
X127602064Y-89768000D02*
X126397936Y-89768000D01*
X127602064Y-91588000D02*
X126397936Y-91588000D01*
X127602064Y-87778000D02*
X126397936Y-87778000D01*
X127602064Y-85958000D02*
X126397936Y-85958000D01*
X127472064Y-83968000D02*
X126267936Y-83968000D01*
X127472064Y-82148000D02*
X126267936Y-82148000D01*
X127602064Y-78338000D02*
X126397936Y-78338000D01*
X127602064Y-80158000D02*
X126397936Y-80158000D01*
X127602064Y-74528000D02*
X126397936Y-74528000D01*
X127602064Y-76348000D02*
X126397936Y-76348000D01*
X122646064Y-108564000D02*
X121441936Y-108564000D01*
X122646064Y-110384000D02*
X121441936Y-110384000D01*
X160930000Y-58892064D02*
X160930000Y-57687936D01*
X159110000Y-58892064D02*
X159110000Y-57687936D01*
X178532064Y-103230000D02*
X177327936Y-103230000D01*
X178532064Y-105050000D02*
X177327936Y-105050000D01*
X178656064Y-98404000D02*
X177451936Y-98404000D01*
X178656064Y-100224000D02*
X177451936Y-100224000D01*
X150527936Y-134260000D02*
X151732064Y-134260000D01*
X150527936Y-132440000D02*
X151732064Y-132440000D01*
D14*
X140904142Y-90638333D02*
X140951761Y-90590714D01*
X140999380Y-90447857D01*
X140999380Y-90352619D01*
X140951761Y-90209761D01*
X140856523Y-90114523D01*
X140761285Y-90066904D01*
X140570809Y-90019285D01*
X140427952Y-90019285D01*
X140237476Y-90066904D01*
X140142238Y-90114523D01*
X140047000Y-90209761D01*
X139999380Y-90352619D01*
X139999380Y-90447857D01*
X140047000Y-90590714D01*
X140094619Y-90638333D01*
X140999380Y-91590714D02*
X140999380Y-91019285D01*
X140999380Y-91305000D02*
X139999380Y-91305000D01*
X140142238Y-91209761D01*
X140237476Y-91114523D01*
X140285095Y-91019285D01*
X146009142Y-109053333D02*
X146056761Y-109005714D01*
X146104380Y-108862857D01*
X146104380Y-108767619D01*
X146056761Y-108624761D01*
X145961523Y-108529523D01*
X145866285Y-108481904D01*
X145675809Y-108434285D01*
X145532952Y-108434285D01*
X145342476Y-108481904D01*
X145247238Y-108529523D01*
X145152000Y-108624761D01*
X145104380Y-108767619D01*
X145104380Y-108862857D01*
X145152000Y-109005714D01*
X145199619Y-109053333D01*
X145199619Y-109434285D02*
X145152000Y-109481904D01*
X145104380Y-109577142D01*
X145104380Y-109815238D01*
X145152000Y-109910476D01*
X145199619Y-109958095D01*
X145294857Y-110005714D01*
X145390095Y-110005714D01*
X145532952Y-109958095D01*
X146104380Y-109386666D01*
X146104380Y-110005714D01*
X178877142Y-114133333D02*
X178924761Y-114085714D01*
X178972380Y-113942857D01*
X178972380Y-113847619D01*
X178924761Y-113704761D01*
X178829523Y-113609523D01*
X178734285Y-113561904D01*
X178543809Y-113514285D01*
X178400952Y-113514285D01*
X178210476Y-113561904D01*
X178115238Y-113609523D01*
X178020000Y-113704761D01*
X177972380Y-113847619D01*
X177972380Y-113942857D01*
X178020000Y-114085714D01*
X178067619Y-114133333D01*
X177972380Y-114466666D02*
X177972380Y-115085714D01*
X178353333Y-114752380D01*
X178353333Y-114895238D01*
X178400952Y-114990476D01*
X178448571Y-115038095D01*
X178543809Y-115085714D01*
X178781904Y-115085714D01*
X178877142Y-115038095D01*
X178924761Y-114990476D01*
X178972380Y-114895238D01*
X178972380Y-114609523D01*
X178924761Y-114514285D01*
X178877142Y-114466666D01*
X151529142Y-84288333D02*
X151576761Y-84240714D01*
X151624380Y-84097857D01*
X151624380Y-84002619D01*
X151576761Y-83859761D01*
X151481523Y-83764523D01*
X151386285Y-83716904D01*
X151195809Y-83669285D01*
X151052952Y-83669285D01*
X150862476Y-83716904D01*
X150767238Y-83764523D01*
X150672000Y-83859761D01*
X150624380Y-84002619D01*
X150624380Y-84097857D01*
X150672000Y-84240714D01*
X150719619Y-84288333D01*
X150624380Y-85193095D02*
X150624380Y-84716904D01*
X151100571Y-84669285D01*
X151052952Y-84716904D01*
X151005333Y-84812142D01*
X151005333Y-85050238D01*
X151052952Y-85145476D01*
X151100571Y-85193095D01*
X151195809Y-85240714D01*
X151433904Y-85240714D01*
X151529142Y-85193095D01*
X151576761Y-85145476D01*
X151624380Y-85050238D01*
X151624380Y-84812142D01*
X151576761Y-84716904D01*
X151529142Y-84669285D01*
X160927142Y-74763333D02*
X160974761Y-74715714D01*
X161022380Y-74572857D01*
X161022380Y-74477619D01*
X160974761Y-74334761D01*
X160879523Y-74239523D01*
X160784285Y-74191904D01*
X160593809Y-74144285D01*
X160450952Y-74144285D01*
X160260476Y-74191904D01*
X160165238Y-74239523D01*
X160070000Y-74334761D01*
X160022380Y-74477619D01*
X160022380Y-74572857D01*
X160070000Y-74715714D01*
X160117619Y-74763333D01*
X160022380Y-75096666D02*
X160022380Y-75763333D01*
X161022380Y-75334761D01*
X158387142Y-58383333D02*
X158434761Y-58335714D01*
X158482380Y-58192857D01*
X158482380Y-58097619D01*
X158434761Y-57954761D01*
X158339523Y-57859523D01*
X158244285Y-57811904D01*
X158053809Y-57764285D01*
X157910952Y-57764285D01*
X157720476Y-57811904D01*
X157625238Y-57859523D01*
X157530000Y-57954761D01*
X157482380Y-58097619D01*
X157482380Y-58192857D01*
X157530000Y-58335714D01*
X157577619Y-58383333D01*
X157910952Y-58954761D02*
X157863333Y-58859523D01*
X157815714Y-58811904D01*
X157720476Y-58764285D01*
X157672857Y-58764285D01*
X157577619Y-58811904D01*
X157530000Y-58859523D01*
X157482380Y-58954761D01*
X157482380Y-59145238D01*
X157530000Y-59240476D01*
X157577619Y-59288095D01*
X157672857Y-59335714D01*
X157720476Y-59335714D01*
X157815714Y-59288095D01*
X157863333Y-59240476D01*
X157910952Y-59145238D01*
X157910952Y-58954761D01*
X157958571Y-58859523D01*
X158006190Y-58811904D01*
X158101428Y-58764285D01*
X158291904Y-58764285D01*
X158387142Y-58811904D01*
X158434761Y-58859523D01*
X158482380Y-58954761D01*
X158482380Y-59145238D01*
X158434761Y-59240476D01*
X158387142Y-59288095D01*
X158291904Y-59335714D01*
X158101428Y-59335714D01*
X158006190Y-59288095D01*
X157958571Y-59240476D01*
X157910952Y-59145238D01*
X122086666Y-138670380D02*
X122420000Y-138194190D01*
X122658095Y-138670380D02*
X122658095Y-137670380D01*
X122277142Y-137670380D01*
X122181904Y-137718000D01*
X122134285Y-137765619D01*
X122086666Y-137860857D01*
X122086666Y-138003714D01*
X122134285Y-138098952D01*
X122181904Y-138146571D01*
X122277142Y-138194190D01*
X122658095Y-138194190D01*
X121134285Y-138670380D02*
X121705714Y-138670380D01*
X121420000Y-138670380D02*
X121420000Y-137670380D01*
X121515238Y-137813238D01*
X121610476Y-137908476D01*
X121705714Y-137956095D01*
X175162380Y-114133333D02*
X174686190Y-113800000D01*
X175162380Y-113561904D02*
X174162380Y-113561904D01*
X174162380Y-113942857D01*
X174210000Y-114038095D01*
X174257619Y-114085714D01*
X174352857Y-114133333D01*
X174495714Y-114133333D01*
X174590952Y-114085714D01*
X174638571Y-114038095D01*
X174686190Y-113942857D01*
X174686190Y-113561904D01*
X174257619Y-114514285D02*
X174210000Y-114561904D01*
X174162380Y-114657142D01*
X174162380Y-114895238D01*
X174210000Y-114990476D01*
X174257619Y-115038095D01*
X174352857Y-115085714D01*
X174448095Y-115085714D01*
X174590952Y-115038095D01*
X175162380Y-114466666D01*
X175162380Y-115085714D01*
X171352380Y-114133333D02*
X170876190Y-113800000D01*
X171352380Y-113561904D02*
X170352380Y-113561904D01*
X170352380Y-113942857D01*
X170400000Y-114038095D01*
X170447619Y-114085714D01*
X170542857Y-114133333D01*
X170685714Y-114133333D01*
X170780952Y-114085714D01*
X170828571Y-114038095D01*
X170876190Y-113942857D01*
X170876190Y-113561904D01*
X170352380Y-114466666D02*
X170352380Y-115085714D01*
X170733333Y-114752380D01*
X170733333Y-114895238D01*
X170780952Y-114990476D01*
X170828571Y-115038095D01*
X170923809Y-115085714D01*
X171161904Y-115085714D01*
X171257142Y-115038095D01*
X171304761Y-114990476D01*
X171352380Y-114895238D01*
X171352380Y-114609523D01*
X171304761Y-114514285D01*
X171257142Y-114466666D01*
X151296666Y-139432380D02*
X151630000Y-138956190D01*
X151868095Y-139432380D02*
X151868095Y-138432380D01*
X151487142Y-138432380D01*
X151391904Y-138480000D01*
X151344285Y-138527619D01*
X151296666Y-138622857D01*
X151296666Y-138765714D01*
X151344285Y-138860952D01*
X151391904Y-138908571D01*
X151487142Y-138956190D01*
X151868095Y-138956190D01*
X150439523Y-138765714D02*
X150439523Y-139432380D01*
X150677619Y-138384761D02*
X150915714Y-139099047D01*
X150296666Y-139099047D01*
X132500666Y-135030380D02*
X132834000Y-134554190D01*
X133072095Y-135030380D02*
X133072095Y-134030380D01*
X132691142Y-134030380D01*
X132595904Y-134078000D01*
X132548285Y-134125619D01*
X132500666Y-134220857D01*
X132500666Y-134363714D01*
X132548285Y-134458952D01*
X132595904Y-134506571D01*
X132691142Y-134554190D01*
X133072095Y-134554190D01*
X131595904Y-134030380D02*
X132072095Y-134030380D01*
X132119714Y-134506571D01*
X132072095Y-134458952D01*
X131976857Y-134411333D01*
X131738761Y-134411333D01*
X131643523Y-134458952D01*
X131595904Y-134506571D01*
X131548285Y-134601809D01*
X131548285Y-134839904D01*
X131595904Y-134935142D01*
X131643523Y-134982761D01*
X131738761Y-135030380D01*
X131976857Y-135030380D01*
X132072095Y-134982761D01*
X132119714Y-134935142D01*
X111926666Y-58322380D02*
X112260000Y-57846190D01*
X112498095Y-58322380D02*
X112498095Y-57322380D01*
X112117142Y-57322380D01*
X112021904Y-57370000D01*
X111974285Y-57417619D01*
X111926666Y-57512857D01*
X111926666Y-57655714D01*
X111974285Y-57750952D01*
X112021904Y-57798571D01*
X112117142Y-57846190D01*
X112498095Y-57846190D01*
X111069523Y-57322380D02*
X111260000Y-57322380D01*
X111355238Y-57370000D01*
X111402857Y-57417619D01*
X111498095Y-57560476D01*
X111545714Y-57750952D01*
X111545714Y-58131904D01*
X111498095Y-58227142D01*
X111450476Y-58274761D01*
X111355238Y-58322380D01*
X111164761Y-58322380D01*
X111069523Y-58274761D01*
X111021904Y-58227142D01*
X110974285Y-58131904D01*
X110974285Y-57893809D01*
X111021904Y-57798571D01*
X111069523Y-57750952D01*
X111164761Y-57703333D01*
X111355238Y-57703333D01*
X111450476Y-57750952D01*
X111498095Y-57798571D01*
X111545714Y-57893809D01*
X111926666Y-54512380D02*
X112260000Y-54036190D01*
X112498095Y-54512380D02*
X112498095Y-53512380D01*
X112117142Y-53512380D01*
X112021904Y-53560000D01*
X111974285Y-53607619D01*
X111926666Y-53702857D01*
X111926666Y-53845714D01*
X111974285Y-53940952D01*
X112021904Y-53988571D01*
X112117142Y-54036190D01*
X112498095Y-54036190D01*
X111593333Y-53512380D02*
X110926666Y-53512380D01*
X111355238Y-54512380D01*
X166102380Y-58383333D02*
X165626190Y-58050000D01*
X166102380Y-57811904D02*
X165102380Y-57811904D01*
X165102380Y-58192857D01*
X165150000Y-58288095D01*
X165197619Y-58335714D01*
X165292857Y-58383333D01*
X165435714Y-58383333D01*
X165530952Y-58335714D01*
X165578571Y-58288095D01*
X165626190Y-58192857D01*
X165626190Y-57811904D01*
X165530952Y-58954761D02*
X165483333Y-58859523D01*
X165435714Y-58811904D01*
X165340476Y-58764285D01*
X165292857Y-58764285D01*
X165197619Y-58811904D01*
X165150000Y-58859523D01*
X165102380Y-58954761D01*
X165102380Y-59145238D01*
X165150000Y-59240476D01*
X165197619Y-59288095D01*
X165292857Y-59335714D01*
X165340476Y-59335714D01*
X165435714Y-59288095D01*
X165483333Y-59240476D01*
X165530952Y-59145238D01*
X165530952Y-58954761D01*
X165578571Y-58859523D01*
X165626190Y-58811904D01*
X165721428Y-58764285D01*
X165911904Y-58764285D01*
X166007142Y-58811904D01*
X166054761Y-58859523D01*
X166102380Y-58954761D01*
X166102380Y-59145238D01*
X166054761Y-59240476D01*
X166007142Y-59288095D01*
X165911904Y-59335714D01*
X165721428Y-59335714D01*
X165626190Y-59288095D01*
X165578571Y-59240476D01*
X165530952Y-59145238D01*
X127166666Y-100740380D02*
X127500000Y-100264190D01*
X127738095Y-100740380D02*
X127738095Y-99740380D01*
X127357142Y-99740380D01*
X127261904Y-99788000D01*
X127214285Y-99835619D01*
X127166666Y-99930857D01*
X127166666Y-100073714D01*
X127214285Y-100168952D01*
X127261904Y-100216571D01*
X127357142Y-100264190D01*
X127738095Y-100264190D01*
X126690476Y-100740380D02*
X126500000Y-100740380D01*
X126404761Y-100692761D01*
X126357142Y-100645142D01*
X126261904Y-100502285D01*
X126214285Y-100311809D01*
X126214285Y-99930857D01*
X126261904Y-99835619D01*
X126309523Y-99788000D01*
X126404761Y-99740380D01*
X126595238Y-99740380D01*
X126690476Y-99788000D01*
X126738095Y-99835619D01*
X126785714Y-99930857D01*
X126785714Y-100168952D01*
X126738095Y-100264190D01*
X126690476Y-100311809D01*
X126595238Y-100359428D01*
X126404761Y-100359428D01*
X126309523Y-100311809D01*
X126261904Y-100264190D01*
X126214285Y-100168952D01*
X164832380Y-74287142D02*
X164356190Y-73953809D01*
X164832380Y-73715714D02*
X163832380Y-73715714D01*
X163832380Y-74096666D01*
X163880000Y-74191904D01*
X163927619Y-74239523D01*
X164022857Y-74287142D01*
X164165714Y-74287142D01*
X164260952Y-74239523D01*
X164308571Y-74191904D01*
X164356190Y-74096666D01*
X164356190Y-73715714D01*
X164832380Y-75239523D02*
X164832380Y-74668095D01*
X164832380Y-74953809D02*
X163832380Y-74953809D01*
X163975238Y-74858571D01*
X164070476Y-74763333D01*
X164118095Y-74668095D01*
X163832380Y-75858571D02*
X163832380Y-75953809D01*
X163880000Y-76049047D01*
X163927619Y-76096666D01*
X164022857Y-76144285D01*
X164213333Y-76191904D01*
X164451428Y-76191904D01*
X164641904Y-76144285D01*
X164737142Y-76096666D01*
X164784761Y-76049047D01*
X164832380Y-75953809D01*
X164832380Y-75858571D01*
X164784761Y-75763333D01*
X164737142Y-75715714D01*
X164641904Y-75668095D01*
X164451428Y-75620476D01*
X164213333Y-75620476D01*
X164022857Y-75668095D01*
X163927619Y-75715714D01*
X163880000Y-75763333D01*
X163832380Y-75858571D01*
X127642857Y-96930380D02*
X127976190Y-96454190D01*
X128214285Y-96930380D02*
X128214285Y-95930380D01*
X127833333Y-95930380D01*
X127738095Y-95978000D01*
X127690476Y-96025619D01*
X127642857Y-96120857D01*
X127642857Y-96263714D01*
X127690476Y-96358952D01*
X127738095Y-96406571D01*
X127833333Y-96454190D01*
X128214285Y-96454190D01*
X126690476Y-96930380D02*
X127261904Y-96930380D01*
X126976190Y-96930380D02*
X126976190Y-95930380D01*
X127071428Y-96073238D01*
X127166666Y-96168476D01*
X127261904Y-96216095D01*
X125738095Y-96930380D02*
X126309523Y-96930380D01*
X126023809Y-96930380D02*
X126023809Y-95930380D01*
X126119047Y-96073238D01*
X126214285Y-96168476D01*
X126309523Y-96216095D01*
X127642857Y-93120380D02*
X127976190Y-92644190D01*
X128214285Y-93120380D02*
X128214285Y-92120380D01*
X127833333Y-92120380D01*
X127738095Y-92168000D01*
X127690476Y-92215619D01*
X127642857Y-92310857D01*
X127642857Y-92453714D01*
X127690476Y-92548952D01*
X127738095Y-92596571D01*
X127833333Y-92644190D01*
X128214285Y-92644190D01*
X126690476Y-93120380D02*
X127261904Y-93120380D01*
X126976190Y-93120380D02*
X126976190Y-92120380D01*
X127071428Y-92263238D01*
X127166666Y-92358476D01*
X127261904Y-92406095D01*
X126309523Y-92215619D02*
X126261904Y-92168000D01*
X126166666Y-92120380D01*
X125928571Y-92120380D01*
X125833333Y-92168000D01*
X125785714Y-92215619D01*
X125738095Y-92310857D01*
X125738095Y-92406095D01*
X125785714Y-92548952D01*
X126357142Y-93120380D01*
X125738095Y-93120380D01*
X127642857Y-89310380D02*
X127976190Y-88834190D01*
X128214285Y-89310380D02*
X128214285Y-88310380D01*
X127833333Y-88310380D01*
X127738095Y-88358000D01*
X127690476Y-88405619D01*
X127642857Y-88500857D01*
X127642857Y-88643714D01*
X127690476Y-88738952D01*
X127738095Y-88786571D01*
X127833333Y-88834190D01*
X128214285Y-88834190D01*
X126690476Y-89310380D02*
X127261904Y-89310380D01*
X126976190Y-89310380D02*
X126976190Y-88310380D01*
X127071428Y-88453238D01*
X127166666Y-88548476D01*
X127261904Y-88596095D01*
X126357142Y-88310380D02*
X125738095Y-88310380D01*
X126071428Y-88691333D01*
X125928571Y-88691333D01*
X125833333Y-88738952D01*
X125785714Y-88786571D01*
X125738095Y-88881809D01*
X125738095Y-89119904D01*
X125785714Y-89215142D01*
X125833333Y-89262761D01*
X125928571Y-89310380D01*
X126214285Y-89310380D01*
X126309523Y-89262761D01*
X126357142Y-89215142D01*
X127642857Y-85500380D02*
X127976190Y-85024190D01*
X128214285Y-85500380D02*
X128214285Y-84500380D01*
X127833333Y-84500380D01*
X127738095Y-84548000D01*
X127690476Y-84595619D01*
X127642857Y-84690857D01*
X127642857Y-84833714D01*
X127690476Y-84928952D01*
X127738095Y-84976571D01*
X127833333Y-85024190D01*
X128214285Y-85024190D01*
X126690476Y-85500380D02*
X127261904Y-85500380D01*
X126976190Y-85500380D02*
X126976190Y-84500380D01*
X127071428Y-84643238D01*
X127166666Y-84738476D01*
X127261904Y-84786095D01*
X125833333Y-84833714D02*
X125833333Y-85500380D01*
X126071428Y-84452761D02*
X126309523Y-85167047D01*
X125690476Y-85167047D01*
X127512857Y-81690380D02*
X127846190Y-81214190D01*
X128084285Y-81690380D02*
X128084285Y-80690380D01*
X127703333Y-80690380D01*
X127608095Y-80738000D01*
X127560476Y-80785619D01*
X127512857Y-80880857D01*
X127512857Y-81023714D01*
X127560476Y-81118952D01*
X127608095Y-81166571D01*
X127703333Y-81214190D01*
X128084285Y-81214190D01*
X126560476Y-81690380D02*
X127131904Y-81690380D01*
X126846190Y-81690380D02*
X126846190Y-80690380D01*
X126941428Y-80833238D01*
X127036666Y-80928476D01*
X127131904Y-80976095D01*
X125655714Y-80690380D02*
X126131904Y-80690380D01*
X126179523Y-81166571D01*
X126131904Y-81118952D01*
X126036666Y-81071333D01*
X125798571Y-81071333D01*
X125703333Y-81118952D01*
X125655714Y-81166571D01*
X125608095Y-81261809D01*
X125608095Y-81499904D01*
X125655714Y-81595142D01*
X125703333Y-81642761D01*
X125798571Y-81690380D01*
X126036666Y-81690380D01*
X126131904Y-81642761D01*
X126179523Y-81595142D01*
X127642857Y-77880380D02*
X127976190Y-77404190D01*
X128214285Y-77880380D02*
X128214285Y-76880380D01*
X127833333Y-76880380D01*
X127738095Y-76928000D01*
X127690476Y-76975619D01*
X127642857Y-77070857D01*
X127642857Y-77213714D01*
X127690476Y-77308952D01*
X127738095Y-77356571D01*
X127833333Y-77404190D01*
X128214285Y-77404190D01*
X126690476Y-77880380D02*
X127261904Y-77880380D01*
X126976190Y-77880380D02*
X126976190Y-76880380D01*
X127071428Y-77023238D01*
X127166666Y-77118476D01*
X127261904Y-77166095D01*
X125833333Y-76880380D02*
X126023809Y-76880380D01*
X126119047Y-76928000D01*
X126166666Y-76975619D01*
X126261904Y-77118476D01*
X126309523Y-77308952D01*
X126309523Y-77689904D01*
X126261904Y-77785142D01*
X126214285Y-77832761D01*
X126119047Y-77880380D01*
X125928571Y-77880380D01*
X125833333Y-77832761D01*
X125785714Y-77785142D01*
X125738095Y-77689904D01*
X125738095Y-77451809D01*
X125785714Y-77356571D01*
X125833333Y-77308952D01*
X125928571Y-77261333D01*
X126119047Y-77261333D01*
X126214285Y-77308952D01*
X126261904Y-77356571D01*
X126309523Y-77451809D01*
X127642857Y-74070380D02*
X127976190Y-73594190D01*
X128214285Y-74070380D02*
X128214285Y-73070380D01*
X127833333Y-73070380D01*
X127738095Y-73118000D01*
X127690476Y-73165619D01*
X127642857Y-73260857D01*
X127642857Y-73403714D01*
X127690476Y-73498952D01*
X127738095Y-73546571D01*
X127833333Y-73594190D01*
X128214285Y-73594190D01*
X126690476Y-74070380D02*
X127261904Y-74070380D01*
X126976190Y-74070380D02*
X126976190Y-73070380D01*
X127071428Y-73213238D01*
X127166666Y-73308476D01*
X127261904Y-73356095D01*
X126357142Y-73070380D02*
X125690476Y-73070380D01*
X126119047Y-74070380D01*
X122686857Y-108106380D02*
X123020190Y-107630190D01*
X123258285Y-108106380D02*
X123258285Y-107106380D01*
X122877333Y-107106380D01*
X122782095Y-107154000D01*
X122734476Y-107201619D01*
X122686857Y-107296857D01*
X122686857Y-107439714D01*
X122734476Y-107534952D01*
X122782095Y-107582571D01*
X122877333Y-107630190D01*
X123258285Y-107630190D01*
X121734476Y-108106380D02*
X122305904Y-108106380D01*
X122020190Y-108106380D02*
X122020190Y-107106380D01*
X122115428Y-107249238D01*
X122210666Y-107344476D01*
X122305904Y-107392095D01*
X121163047Y-107534952D02*
X121258285Y-107487333D01*
X121305904Y-107439714D01*
X121353523Y-107344476D01*
X121353523Y-107296857D01*
X121305904Y-107201619D01*
X121258285Y-107154000D01*
X121163047Y-107106380D01*
X120972571Y-107106380D01*
X120877333Y-107154000D01*
X120829714Y-107201619D01*
X120782095Y-107296857D01*
X120782095Y-107344476D01*
X120829714Y-107439714D01*
X120877333Y-107487333D01*
X120972571Y-107534952D01*
X121163047Y-107534952D01*
X121258285Y-107582571D01*
X121305904Y-107630190D01*
X121353523Y-107725428D01*
X121353523Y-107915904D01*
X121305904Y-108011142D01*
X121258285Y-108058761D01*
X121163047Y-108106380D01*
X120972571Y-108106380D01*
X120877333Y-108058761D01*
X120829714Y-108011142D01*
X120782095Y-107915904D01*
X120782095Y-107725428D01*
X120829714Y-107630190D01*
X120877333Y-107582571D01*
X120972571Y-107534952D01*
X162292380Y-57647142D02*
X161816190Y-57313809D01*
X162292380Y-57075714D02*
X161292380Y-57075714D01*
X161292380Y-57456666D01*
X161340000Y-57551904D01*
X161387619Y-57599523D01*
X161482857Y-57647142D01*
X161625714Y-57647142D01*
X161720952Y-57599523D01*
X161768571Y-57551904D01*
X161816190Y-57456666D01*
X161816190Y-57075714D01*
X162292380Y-58599523D02*
X162292380Y-58028095D01*
X162292380Y-58313809D02*
X161292380Y-58313809D01*
X161435238Y-58218571D01*
X161530476Y-58123333D01*
X161578095Y-58028095D01*
X162292380Y-59075714D02*
X162292380Y-59266190D01*
X162244761Y-59361428D01*
X162197142Y-59409047D01*
X162054285Y-59504285D01*
X161863809Y-59551904D01*
X161482857Y-59551904D01*
X161387619Y-59504285D01*
X161340000Y-59456666D01*
X161292380Y-59361428D01*
X161292380Y-59170952D01*
X161340000Y-59075714D01*
X161387619Y-59028095D01*
X161482857Y-58980476D01*
X161720952Y-58980476D01*
X161816190Y-59028095D01*
X161863809Y-59075714D01*
X161911428Y-59170952D01*
X161911428Y-59361428D01*
X161863809Y-59456666D01*
X161816190Y-59504285D01*
X161720952Y-59551904D01*
X178572857Y-102772380D02*
X178906190Y-102296190D01*
X179144285Y-102772380D02*
X179144285Y-101772380D01*
X178763333Y-101772380D01*
X178668095Y-101820000D01*
X178620476Y-101867619D01*
X178572857Y-101962857D01*
X178572857Y-102105714D01*
X178620476Y-102200952D01*
X178668095Y-102248571D01*
X178763333Y-102296190D01*
X179144285Y-102296190D01*
X178191904Y-101867619D02*
X178144285Y-101820000D01*
X178049047Y-101772380D01*
X177810952Y-101772380D01*
X177715714Y-101820000D01*
X177668095Y-101867619D01*
X177620476Y-101962857D01*
X177620476Y-102058095D01*
X177668095Y-102200952D01*
X178239523Y-102772380D01*
X177620476Y-102772380D01*
X177001428Y-101772380D02*
X176906190Y-101772380D01*
X176810952Y-101820000D01*
X176763333Y-101867619D01*
X176715714Y-101962857D01*
X176668095Y-102153333D01*
X176668095Y-102391428D01*
X176715714Y-102581904D01*
X176763333Y-102677142D01*
X176810952Y-102724761D01*
X176906190Y-102772380D01*
X177001428Y-102772380D01*
X177096666Y-102724761D01*
X177144285Y-102677142D01*
X177191904Y-102581904D01*
X177239523Y-102391428D01*
X177239523Y-102153333D01*
X177191904Y-101962857D01*
X177144285Y-101867619D01*
X177096666Y-101820000D01*
X177001428Y-101772380D01*
X178696857Y-97946380D02*
X179030190Y-97470190D01*
X179268285Y-97946380D02*
X179268285Y-96946380D01*
X178887333Y-96946380D01*
X178792095Y-96994000D01*
X178744476Y-97041619D01*
X178696857Y-97136857D01*
X178696857Y-97279714D01*
X178744476Y-97374952D01*
X178792095Y-97422571D01*
X178887333Y-97470190D01*
X179268285Y-97470190D01*
X178315904Y-97041619D02*
X178268285Y-96994000D01*
X178173047Y-96946380D01*
X177934952Y-96946380D01*
X177839714Y-96994000D01*
X177792095Y-97041619D01*
X177744476Y-97136857D01*
X177744476Y-97232095D01*
X177792095Y-97374952D01*
X178363523Y-97946380D01*
X177744476Y-97946380D01*
X176792095Y-97946380D02*
X177363523Y-97946380D01*
X177077809Y-97946380D02*
X177077809Y-96946380D01*
X177173047Y-97089238D01*
X177268285Y-97184476D01*
X177363523Y-97232095D01*
X151772857Y-135622380D02*
X152106190Y-135146190D01*
X152344285Y-135622380D02*
X152344285Y-134622380D01*
X151963333Y-134622380D01*
X151868095Y-134670000D01*
X151820476Y-134717619D01*
X151772857Y-134812857D01*
X151772857Y-134955714D01*
X151820476Y-135050952D01*
X151868095Y-135098571D01*
X151963333Y-135146190D01*
X152344285Y-135146190D01*
X151391904Y-134717619D02*
X151344285Y-134670000D01*
X151249047Y-134622380D01*
X151010952Y-134622380D01*
X150915714Y-134670000D01*
X150868095Y-134717619D01*
X150820476Y-134812857D01*
X150820476Y-134908095D01*
X150868095Y-135050952D01*
X151439523Y-135622380D01*
X150820476Y-135622380D01*
X150439523Y-134717619D02*
X150391904Y-134670000D01*
X150296666Y-134622380D01*
X150058571Y-134622380D01*
X149963333Y-134670000D01*
X149915714Y-134717619D01*
X149868095Y-134812857D01*
X149868095Y-134908095D01*
X149915714Y-135050952D01*
X150487142Y-135622380D01*
X149868095Y-135622380D01*
M02*
